<svg xmlns="http://www.w3.org/2000/svg" width="512" height="512" viewBox="0 0 512 512"><g fill="#008cdb"><path d="M188.318 424.399c0-11.935 9.674-21.609 21.617-21.609 11.926 0 21.6 9.675 21.6 21.609 0 11.927-9.674 21.601-21.6 21.601-11.943 0-21.617-9.674-21.617-21.601zM280.465 424.399c0-11.935 9.664-21.609 21.6-21.609 11.945 0 21.609 9.675 21.609 21.609 0 11.927-9.664 21.601-21.609 21.601-11.936 0-21.6-9.674-21.6-21.601z"/><path d="M418.986 66h-55.871c-19.428 0-26.246 6.029-31.984 10.587-30.264 24.092-63.666 73.34-75.131 90.968-11.475-17.628-44.867-66.876-75.141-90.968C175.123 72.029 168.305 66 148.885 66H93.006c-25.422 0-41.305 20.332-41.305 79.432v218.592c0 40.035 13.975 76.896 33.678 76.896h70.529c30.361 0-26.043-92.138-26.043-187.46v-21.91-1.454-3.964c0-31.142 6.703-60.03 22.877-47.022 55.277 44.478 52.732 177.298 81.02 177.298h44.476c28.277 0 25.742-132.82 81.02-177.298 16.174-13.008 22.877 15.881 22.877 47.022v27.328c0 95.322-56.404 187.46-26.051 187.46h70.527c19.713 0 33.688-36.86 33.688-76.896V145.432c0-59.1-15.881-79.432-41.313-79.432z"/></g></svg>