<?xml version="1.0" encoding="UTF-8"?>
<!DOCTYPE svg PUBLIC "-//W3C//DTD SVG 1.1//EN" "http://www.w3.org/Graphics/SVG/1.1/DTD/svg11.dtd">
<!-- Creator: MOVe -->
<svg xmlns="http://www.w3.org/2000/svg" xml:space="preserve" width="10.6596mm" height="13.8345mm" version="1.1" style="shape-rendering:geometricPrecision; text-rendering:geometricPrecision; image-rendering:optimizeQuality; fill-rule:evenodd; clip-rule:evenodd"
viewBox="0 0 155.47 201.77" xmlns:xlink="http://www.w3.org/1999/xlink">
 <defs>
  <style type="text/css">
   <![CDATA[
    .str0 {stroke:#2B2A29;stroke-width:0.1;stroke-miterlimit:22.9256}
    .fil0 {fill:#2B2A29}
   ]]>
  </style>
 </defs>
 <g id="Foreground">
  <path class="fil0 str0" d="M104.55 170.32l0 -17.01c0,-0.92 -0.14,-1.53 -0.41,-1.83 -0.27,-0.3 -0.83,-0.45 -1.68,-0.45l-2.08 0 0 21.58 2.08 0c0.83,0 1.39,-0.15 1.66,-0.46 0.28,-0.31 0.42,-0.91 0.42,-1.82zm-11.99 8.25l0 0 0 -33.57 9.91 0c3.98,0 6.67,0.71 8.06,2.11 1.39,1.41 2.08,4.18 2.08,8.31l0 12.72c0,4.13 -0.69,6.9 -2.08,8.31 -1.39,1.41 -4.07,2.11 -8.06,2.11l-9.91 0zm-12.57 -8.25l0 0 0 -17.01c0,-0.92 -0.14,-1.53 -0.41,-1.83 -0.27,-0.3 -0.83,-0.45 -1.68,-0.45l-2.08 0 0 21.58 2.08 0c0.83,0 1.39,-0.15 1.67,-0.46 0.28,-0.31 0.42,-0.91 0.42,-1.82zm-11.99 8.25l0 0 0 -33.57 9.91 0c3.98,0 6.67,0.71 8.06,2.11 1.39,1.41 2.08,4.18 2.08,8.31l0 12.72c0,4.13 -0.69,6.9 -2.08,8.31 -1.39,1.41 -4.07,2.11 -8.06,2.11l-9.91 0zm-24.68 0l0 0 0 -33.57 7.82 0 0 12.92 4.07 0 0 -12.92 7.83 0 0 33.57 -7.83 0 0 -14.63 -4.07 0 0 14.63 -7.82 0zm-22.18 -178.02l0 0 113.19 0c11.37,0 20.58,9.21 20.58,20.58l0 159.5c0,11.37 -9.21,20.58 -20.58,20.58l-113.19 0c-11.37,0 -20.58,-9.21 -20.58,-20.58l0 -159.5c0,-11.37 9.21,-20.58 20.58,-20.58zm46.75 77.18l0 0c0,-5.44 4.41,-9.85 9.85,-9.85 5.44,0 9.85,4.41 9.85,9.85 0,5.44 -4.41,9.85 -9.85,9.85 -5.44,0 -9.85,-4.41 -9.85,-9.85zm-42.77 0l0 0c0,-29.06 23.56,-52.62 52.62,-52.62 29.06,0 52.62,23.56 52.62,52.62 0,29.06 -23.56,52.62 -52.62,52.62 -10.99,0 -21.19,-3.37 -29.63,-9.13l18.5 -27.16c0.24,-0.27 0.45,-0.57 0.61,-0.9 0.28,-0.56 0.44,-1.19 0.44,-1.86 0,-2.29 -1.85,-4.14 -4.14,-4.14 -0.73,0 -1.41,0.19 -2.31,0.71l-28.34 17.38c-4.92,-8.01 -7.76,-17.43 -7.76,-27.52zm-11.18 -59.17l0 0c0,-2.56 2.07,-4.63 4.63,-4.63 2.56,0 4.63,2.07 4.63,4.63 0,2.56 -2.07,4.63 -4.63,4.63 -2.56,0 -4.63,-2.07 -4.63,-4.63zm118.34 0l0 0c0,-2.56 2.07,-4.63 4.63,-4.63 2.56,0 4.63,2.07 4.63,4.63 0,2.56 -2.07,4.63 -4.63,4.63 -2.56,0 -4.63,-2.07 -4.63,-4.63zm-118.34 164.65l0 0c0,-2.56 2.07,-4.63 4.63,-4.63 2.56,0 4.63,2.07 4.63,4.63 0,2.56 -2.07,4.63 -4.63,4.63 -2.56,0 -4.63,-2.07 -4.63,-4.63zm118.34 0l0 0c0,-2.56 2.07,-4.63 4.63,-4.63 2.56,0 4.63,2.07 4.63,4.63 0,2.56 -2.07,4.63 -4.63,4.63 -2.56,0 -4.63,-2.07 -4.63,-4.63z"/>
 </g>
</svg>
