<?xml version="1.0" encoding="UTF-8"?>
<!DOCTYPE svg PUBLIC "-//W3C//DTD SVG 1.1//EN" "http://www.w3.org/Graphics/SVG/1.1/DTD/svg11.dtd">
<!-- Creator: CorelDRAW (Версия для OEM) -->
<svg xmlns="http://www.w3.org/2000/svg" xml:space="preserve" width="125px" height="163px" version="1.1" style="shape-rendering:geometricPrecision; text-rendering:geometricPrecision; image-rendering:optimizeQuality; fill-rule:evenodd; clip-rule:evenodd"
viewBox="0 0 8.91 11.58"
 xmlns:xlink="http://www.w3.org/1999/xlink"
 xmlns:xodm="http://www.corel.com/coreldraw/odm/2003">
 <defs>
  <style type="text/css">
   <![CDATA[
    .fil0 {fill:#2B2A29}
   ]]>
  </style>
 </defs>
 <g id="Foreground">
  <metadata id="CorelCorpID_0Corel-Layer"/>
  <path class="fil0" d="M1.04 9.62l6.83 0 0 0.1 -6.83 0 0 -0.1zm0 0.26l0 0 6.83 0 0 0.09 -6.83 0 0 -0.09zm0 0.25l0 0 6.83 0 0 0.09 -6.83 0 0 -0.09zm0 0.25l0 0 6.83 0 0 0.09 -6.83 0 0 -0.09zm0 0.25l0 0 6.83 0 0 0.09 -6.83 0 0 -0.09zm7.18 0.66l0 0 0 0.29 -0.59 0 0 -0.29 -6.35 0 0 0.29 -0.59 0 0 -0.29 -0.45 0c-0.13,0 -0.24,-0.11 -0.24,-0.24l0 -10.81c0,-0.13 0.11,-0.24 0.24,-0.24l8.43 0c0.13,0 0.24,0.11 0.24,0.24l0 10.81c0,0.13 -0.11,0.24 -0.24,0.24l-0.45 0zm-2.37 -10.77l0 0 0.15 0c0.03,0 0.06,0.03 0.06,0.06l0 0.15c0,0.03 -0.03,0.06 -0.06,0.06l-0.15 0c-0.03,0 -0.06,-0.03 -0.06,-0.06l0 -0.15c0,-0.03 0.03,-0.06 0.06,-0.06zm0.91 0l0 0 0.14 0c0.04,0 0.06,0.03 0.06,0.06l0 0.15c0,0.03 -0.02,0.06 -0.06,0.06l-0.14 0c-0.04,0 -0.06,-0.03 -0.06,-0.06l0 -0.15c0,-0.03 0.02,-0.06 0.06,-0.06zm0.9 0l0 0 0.15 0c0.03,0 0.06,0.03 0.06,0.06l0 0.15c0,0.03 -0.03,0.06 -0.06,0.06l-0.15 0c-0.03,0 -0.06,-0.03 -0.06,-0.06l0 -0.15c0,-0.03 0.03,-0.06 0.06,-0.06zm-4.35 8.14l0 0 2.28 0 0 0.35 2.93 0 0 1.95 -8.13 0 0 -1.95 2.92 0 0 -0.35zm2.28 0.43l0 0 0 0.35 -2.28 0 0 -0.35 -2.85 0 0 1.8 7.99 0 0 -1.8 -2.86 0zm2.25 -1.65l0 0c0,-0.05 0.04,-0.1 0.1,-0.1 0.05,0 0.1,0.05 0.1,0.1 0,0.06 -0.05,0.1 -0.1,0.1 -0.06,0 -0.1,-0.04 -0.1,-0.1zm0 -0.33l0 0c0,-0.06 0.04,-0.1 0.1,-0.1 0.05,0 0.1,0.04 0.1,0.1 0,0.05 -0.05,0.1 -0.1,0.1 -0.06,0 -0.1,-0.05 -0.1,-0.1zm0 -0.33l0 0c0,-0.06 0.04,-0.11 0.1,-0.11 0.05,0 0.1,0.05 0.1,0.11 0,0.05 -0.05,0.1 -0.1,0.1 -0.06,0 -0.1,-0.05 -0.1,-0.1zm-0.54 0.66l0 0c0,-0.05 0.05,-0.1 0.1,-0.1 0.06,0 0.1,0.05 0.1,0.1 0,0.06 -0.04,0.1 -0.1,0.1 -0.05,0 -0.1,-0.04 -0.1,-0.1zm0 -0.33l0 0c0,-0.06 0.05,-0.1 0.1,-0.1 0.06,0 0.1,0.04 0.1,0.1 0,0.05 -0.04,0.1 -0.1,0.1 -0.05,0 -0.1,-0.05 -0.1,-0.1zm0 -0.33l0 0c0,-0.06 0.05,-0.11 0.1,-0.11 0.06,0 0.1,0.05 0.1,0.11 0,0.05 -0.04,0.1 -0.1,0.1 -0.05,0 -0.1,-0.05 -0.1,-0.1zm0.27 0.83l0 0c0,-0.06 0.04,-0.1 0.1,-0.1 0.05,0 0.1,0.04 0.1,0.1 0,0.06 -0.05,0.1 -0.1,0.1 -0.06,0 -0.1,-0.04 -0.1,-0.1zm0 -0.33l0 0c0,-0.06 0.04,-0.1 0.1,-0.1 0.05,0 0.1,0.04 0.1,0.1 0,0.05 -0.05,0.1 -0.1,0.1 -0.06,0 -0.1,-0.05 -0.1,-0.1zm0 -0.34l0 0c0,-0.05 0.04,-0.1 0.1,-0.1 0.05,0 0.1,0.05 0.1,0.1 0,0.06 -0.05,0.1 -0.1,0.1 -0.06,0 -0.1,-0.04 -0.1,-0.1zm0 -0.33l0 0c0,-0.06 0.04,-0.1 0.1,-0.1 0.05,0 0.1,0.04 0.1,0.1 0,0.05 -0.05,0.1 -0.1,0.1 -0.06,0 -0.1,-0.05 -0.1,-0.1zm-0.53 0.83l0 0c0,-0.05 0.04,-0.1 0.1,-0.1 0.05,0 0.1,0.05 0.1,0.1 0,0.06 -0.05,0.1 -0.1,0.1 -0.06,0 -0.1,-0.04 -0.1,-0.1zm0 -0.33l0 0c0,-0.06 0.04,-0.1 0.1,-0.1 0.05,0 0.1,0.04 0.1,0.1 0,0.05 -0.05,0.1 -0.1,0.1 -0.06,0 -0.1,-0.05 -0.1,-0.1zm0 -0.33l0 0c0,-0.06 0.04,-0.11 0.1,-0.11 0.05,0 0.1,0.05 0.1,0.11 0,0.05 -0.05,0.1 -0.1,0.1 -0.06,0 -0.1,-0.05 -0.1,-0.1zm-0.54 0.66l0 0c0,-0.05 0.05,-0.1 0.1,-0.1 0.06,0 0.1,0.05 0.1,0.1 0,0.06 -0.04,0.1 -0.1,0.1 -0.05,0 -0.1,-0.04 -0.1,-0.1zm0 -0.33l0 0c0,-0.06 0.05,-0.1 0.1,-0.1 0.06,0 0.1,0.04 0.1,0.1 0,0.05 -0.04,0.1 -0.1,0.1 -0.05,0 -0.1,-0.05 -0.1,-0.1zm0 -0.33l0 0c0,-0.06 0.05,-0.11 0.1,-0.11 0.06,0 0.1,0.05 0.1,0.11 0,0.05 -0.04,0.1 -0.1,0.1 -0.05,0 -0.1,-0.05 -0.1,-0.1zm0.27 0.83l0 0c0,-0.06 0.04,-0.1 0.1,-0.1 0.05,0 0.1,0.04 0.1,0.1 0,0.06 -0.05,0.1 -0.1,0.1 -0.06,0 -0.1,-0.04 -0.1,-0.1zm0 -0.33l0 0c0,-0.06 0.04,-0.1 0.1,-0.1 0.05,0 0.1,0.04 0.1,0.1 0,0.05 -0.05,0.1 -0.1,0.1 -0.06,0 -0.1,-0.05 -0.1,-0.1zm0 -0.34l0 0c0,-0.05 0.04,-0.1 0.1,-0.1 0.05,0 0.1,0.05 0.1,0.1 0,0.06 -0.05,0.1 -0.1,0.1 -0.06,0 -0.1,-0.04 -0.1,-0.1zm0 -0.33l0 0c0,-0.06 0.04,-0.1 0.1,-0.1 0.05,0 0.1,0.04 0.1,0.1 0,0.05 -0.05,0.1 -0.1,0.1 -0.06,0 -0.1,-0.05 -0.1,-0.1zm-0.86 0.01l0 0 0.1 0c0.03,0 0.06,0.03 0.06,0.06l0 0.87c0,0.03 -0.03,0.06 -0.06,0.06l-0.1 0c-0.03,0 -0.06,-0.03 -0.06,-0.06l0 -0.87c0,-0.03 0.03,-0.06 0.06,-0.06zm-0.59 0l0 0 0.1 0c0.03,0 0.06,0.03 0.06,0.06l0 0.87c0,0.03 -0.03,0.06 -0.06,0.06l-0.1 0c-0.04,0 -0.06,-0.03 -0.06,-0.06l0 -0.87c0,-0.03 0.02,-0.06 0.06,-0.06zm-0.59 0l0 0 0.1 0c0.03,0 0.06,0.03 0.06,0.06l0 0.87c0,0.03 -0.03,0.06 -0.06,0.06l-0.1 0c-0.04,0 -0.06,-0.03 -0.06,-0.06l0 -0.87c0,-0.03 0.02,-0.06 0.06,-0.06zm-0.59 0l0 0 0.1 0c0.03,0 0.06,0.03 0.06,0.06l0 0.87c0,0.03 -0.03,0.06 -0.06,0.06l-0.1 0c-0.04,0 -0.06,-0.03 -0.06,-0.06l0 -0.87c0,-0.03 0.02,-0.06 0.06,-0.06zm-0.59 0l0 0 0.1 0c0.03,0 0.06,0.03 0.06,0.06l0 0.87c0,0.03 -0.03,0.06 -0.06,0.06l-0.1 0c-0.04,0 -0.06,-0.03 -0.06,-0.06l0 -0.87c0,-0.03 0.02,-0.06 0.06,-0.06zm-0.59 0l0 0 0.1 0c0.03,0 0.05,0.03 0.05,0.06l0 0.87c0,0.03 -0.02,0.06 -0.05,0.06l-0.1 0c-0.04,0 -0.06,-0.03 -0.06,-0.06l0 -0.87c0,-0.03 0.02,-0.06 0.06,-0.06zm-0.59 0l0 0 0.1 0c0.03,0 0.05,0.03 0.05,0.06l0 0.87c0,0.03 -0.02,0.06 -0.05,0.06l-0.1 0c-0.04,0 -0.06,-0.03 -0.06,-0.06l0 -0.87c0,-0.03 0.02,-0.06 0.06,-0.06zm-0.59 0l0 0 0.1 0c0.03,0 0.05,0.03 0.05,0.06l0 0.87c0,0.03 -0.02,0.06 -0.05,0.06l-0.1 0c-0.04,0 -0.06,-0.03 -0.06,-0.06l0 -0.87c0,-0.03 0.02,-0.06 0.06,-0.06zm-0.8 0.47l0 0c0,-0.08 0.07,-0.15 0.15,-0.15 0.09,0 0.15,0.07 0.15,0.15 0,0.08 -0.06,0.15 -0.15,0.15 -0.08,0 -0.15,-0.07 -0.15,-0.15zm7.36 -0.82l0 0 -7.78 0 0 1.7 7.78 0 0 -1.7zm-7.7 0.07l0 0 0 1.55 7.63 0 0 -1.55 -7.63 0zm-0.25 -0.25l0 0 8.13 0 0 2.05 -8.13 0 0 -2.05zm7.45 -1.01l0 0c0,-0.06 0.04,-0.1 0.1,-0.1 0.05,0 0.1,0.04 0.1,0.1 0,0.05 -0.05,0.1 -0.1,0.1 -0.06,0 -0.1,-0.05 -0.1,-0.1zm0 -0.34l0 0c0,-0.05 0.04,-0.1 0.1,-0.1 0.05,0 0.1,0.05 0.1,0.1 0,0.06 -0.05,0.1 -0.1,0.1 -0.06,0 -0.1,-0.04 -0.1,-0.1zm0 -0.33l0 0c0,-0.06 0.04,-0.1 0.1,-0.1 0.05,0 0.1,0.04 0.1,0.1 0,0.05 -0.05,0.1 -0.1,0.1 -0.06,0 -0.1,-0.05 -0.1,-0.1zm-0.54 0.67l0 0c0,-0.06 0.05,-0.1 0.1,-0.1 0.06,0 0.1,0.04 0.1,0.1 0,0.05 -0.04,0.1 -0.1,0.1 -0.05,0 -0.1,-0.05 -0.1,-0.1zm0 -0.34l0 0c0,-0.05 0.05,-0.1 0.1,-0.1 0.06,0 0.1,0.05 0.1,0.1 0,0.06 -0.04,0.1 -0.1,0.1 -0.05,0 -0.1,-0.04 -0.1,-0.1zm0 -0.33l0 0c0,-0.06 0.05,-0.1 0.1,-0.1 0.06,0 0.1,0.04 0.1,0.1 0,0.05 -0.04,0.1 -0.1,0.1 -0.05,0 -0.1,-0.05 -0.1,-0.1zm0.27 0.83l0 0c0,-0.05 0.04,-0.1 0.1,-0.1 0.05,0 0.1,0.05 0.1,0.1 0,0.06 -0.05,0.11 -0.1,0.11 -0.06,0 -0.1,-0.05 -0.1,-0.11zm0 -0.33l0 0c0,-0.05 0.04,-0.1 0.1,-0.1 0.05,0 0.1,0.05 0.1,0.1 0,0.06 -0.05,0.1 -0.1,0.1 -0.06,0 -0.1,-0.04 -0.1,-0.1zm0 -0.33l0 0c0,-0.06 0.04,-0.1 0.1,-0.1 0.05,0 0.1,0.04 0.1,0.1 0,0.05 -0.05,0.1 -0.1,0.1 -0.06,0 -0.1,-0.05 -0.1,-0.1zm0 -0.34l0 0c0,-0.05 0.04,-0.1 0.1,-0.1 0.05,0 0.1,0.05 0.1,0.1 0,0.06 -0.05,0.1 -0.1,0.1 -0.06,0 -0.1,-0.04 -0.1,-0.1zm-0.53 0.84l0 0c0,-0.06 0.04,-0.1 0.1,-0.1 0.05,0 0.1,0.04 0.1,0.1 0,0.05 -0.05,0.1 -0.1,0.1 -0.06,0 -0.1,-0.05 -0.1,-0.1zm0 -0.34l0 0c0,-0.05 0.04,-0.1 0.1,-0.1 0.05,0 0.1,0.05 0.1,0.1 0,0.06 -0.05,0.1 -0.1,0.1 -0.06,0 -0.1,-0.04 -0.1,-0.1zm0 -0.33l0 0c0,-0.06 0.04,-0.1 0.1,-0.1 0.05,0 0.1,0.04 0.1,0.1 0,0.05 -0.05,0.1 -0.1,0.1 -0.06,0 -0.1,-0.05 -0.1,-0.1zm-0.54 0.67l0 0c0,-0.06 0.05,-0.1 0.1,-0.1 0.06,0 0.1,0.04 0.1,0.1 0,0.05 -0.04,0.1 -0.1,0.1 -0.05,0 -0.1,-0.05 -0.1,-0.1zm0 -0.34l0 0c0,-0.05 0.05,-0.1 0.1,-0.1 0.06,0 0.1,0.05 0.1,0.1 0,0.06 -0.04,0.1 -0.1,0.1 -0.05,0 -0.1,-0.04 -0.1,-0.1zm0 -0.33l0 0c0,-0.06 0.05,-0.1 0.1,-0.1 0.06,0 0.1,0.04 0.1,0.1 0,0.05 -0.04,0.1 -0.1,0.1 -0.05,0 -0.1,-0.05 -0.1,-0.1zm0.27 0.83l0 0c0,-0.05 0.04,-0.1 0.1,-0.1 0.05,0 0.1,0.05 0.1,0.1 0,0.06 -0.05,0.11 -0.1,0.11 -0.06,0 -0.1,-0.05 -0.1,-0.11zm0 -0.33l0 0c0,-0.05 0.04,-0.1 0.1,-0.1 0.05,0 0.1,0.05 0.1,0.1 0,0.06 -0.05,0.1 -0.1,0.1 -0.06,0 -0.1,-0.04 -0.1,-0.1zm0 -0.33l0 0c0,-0.06 0.04,-0.1 0.1,-0.1 0.05,0 0.1,0.04 0.1,0.1 0,0.05 -0.05,0.1 -0.1,0.1 -0.06,0 -0.1,-0.05 -0.1,-0.1zm0 -0.34l0 0c0,-0.05 0.04,-0.1 0.1,-0.1 0.05,0 0.1,0.05 0.1,0.1 0,0.06 -0.05,0.1 -0.1,0.1 -0.06,0 -0.1,-0.04 -0.1,-0.1zm-0.86 0.02l0 0 0.1 0c0.03,0 0.06,0.02 0.06,0.06l0 0.86c0,0.04 -0.03,0.06 -0.06,0.06l-0.1 0c-0.03,0 -0.06,-0.02 -0.06,-0.06l0 -0.86c0,-0.04 0.03,-0.06 0.06,-0.06zm-0.59 0l0 0 0.1 0c0.03,0 0.06,0.02 0.06,0.06l0 0.86c0,0.04 -0.03,0.06 -0.06,0.06l-0.1 0c-0.04,0 -0.06,-0.02 -0.06,-0.06l0 -0.86c0,-0.04 0.02,-0.06 0.06,-0.06zm-0.59 0l0 0 0.1 0c0.03,0 0.06,0.02 0.06,0.06l0 0.86c0,0.04 -0.03,0.06 -0.06,0.06l-0.1 0c-0.04,0 -0.06,-0.02 -0.06,-0.06l0 -0.86c0,-0.04 0.02,-0.06 0.06,-0.06zm-0.59 0l0 0 0.1 0c0.03,0 0.06,0.02 0.06,0.06l0 0.86c0,0.04 -0.03,0.06 -0.06,0.06l-0.1 0c-0.04,0 -0.06,-0.02 -0.06,-0.06l0 -0.86c0,-0.04 0.02,-0.06 0.06,-0.06zm-0.59 0l0 0 0.1 0c0.03,0 0.06,0.02 0.06,0.06l0 0.86c0,0.04 -0.03,0.06 -0.06,0.06l-0.1 0c-0.04,0 -0.06,-0.02 -0.06,-0.06l0 -0.86c0,-0.04 0.02,-0.06 0.06,-0.06zm-0.59 0l0 0 0.1 0c0.03,0 0.05,0.02 0.05,0.06l0 0.86c0,0.04 -0.02,0.06 -0.05,0.06l-0.1 0c-0.04,0 -0.06,-0.02 -0.06,-0.06l0 -0.86c0,-0.04 0.02,-0.06 0.06,-0.06zm-0.59 0l0 0 0.1 0c0.03,0 0.05,0.02 0.05,0.06l0 0.86c0,0.04 -0.02,0.06 -0.05,0.06l-0.1 0c-0.04,0 -0.06,-0.02 -0.06,-0.06l0 -0.86c0,-0.04 0.02,-0.06 0.06,-0.06zm-0.59 0l0 0 0.1 0c0.03,0 0.05,0.02 0.05,0.06l0 0.86c0,0.04 -0.02,0.06 -0.05,0.06l-0.1 0c-0.04,0 -0.06,-0.02 -0.06,-0.06l0 -0.86c0,-0.04 0.02,-0.06 0.06,-0.06zm-0.8 0.46l0 0c0,-0.08 0.07,-0.15 0.15,-0.15 0.09,0 0.15,0.07 0.15,0.15 0,0.09 -0.06,0.16 -0.15,0.16 -0.08,0 -0.15,-0.07 -0.15,-0.16zm7.36 -0.82l0 0 -7.78 0 0 1.7 7.78 0 0 -1.7zm-7.7 0.07l0 0 0 1.56 7.63 0 0 -1.56 -7.63 0zm-0.25 -0.25l0 0 8.13 0 0 2.06 -8.13 0 0 -2.06zm7.45 -1.01l0 0c0,-0.05 0.04,-0.1 0.1,-0.1 0.05,0 0.1,0.05 0.1,0.1 0,0.06 -0.05,0.1 -0.1,0.1 -0.06,0 -0.1,-0.04 -0.1,-0.1zm0 -0.33l0 0c0,-0.06 0.04,-0.1 0.1,-0.1 0.05,0 0.1,0.04 0.1,0.1 0,0.05 -0.05,0.1 -0.1,0.1 -0.06,0 -0.1,-0.05 -0.1,-0.1zm0 -0.34l0 0c0,-0.05 0.04,-0.1 0.1,-0.1 0.05,0 0.1,0.05 0.1,0.1 0,0.06 -0.05,0.1 -0.1,0.1 -0.06,0 -0.1,-0.04 -0.1,-0.1zm-0.54 0.67l0 0c0,-0.05 0.05,-0.1 0.1,-0.1 0.06,0 0.1,0.05 0.1,0.1 0,0.06 -0.04,0.1 -0.1,0.1 -0.05,0 -0.1,-0.04 -0.1,-0.1zm0 -0.33l0 0c0,-0.06 0.05,-0.1 0.1,-0.1 0.06,0 0.1,0.04 0.1,0.1 0,0.05 -0.04,0.1 -0.1,0.1 -0.05,0 -0.1,-0.05 -0.1,-0.1zm0 -0.34l0 0c0,-0.05 0.05,-0.1 0.1,-0.1 0.06,0 0.1,0.05 0.1,0.1 0,0.06 -0.04,0.1 -0.1,0.1 -0.05,0 -0.1,-0.04 -0.1,-0.1zm0.27 0.84l0 0c0,-0.06 0.04,-0.1 0.1,-0.1 0.05,0 0.1,0.04 0.1,0.1 0,0.05 -0.05,0.1 -0.1,0.1 -0.06,0 -0.1,-0.05 -0.1,-0.1zm0 -0.33l0 0c0,-0.06 0.04,-0.11 0.1,-0.11 0.05,0 0.1,0.05 0.1,0.11 0,0.05 -0.05,0.1 -0.1,0.1 -0.06,0 -0.1,-0.05 -0.1,-0.1zm0 -0.34l0 0c0,-0.05 0.04,-0.1 0.1,-0.1 0.05,0 0.1,0.05 0.1,0.1 0,0.06 -0.05,0.1 -0.1,0.1 -0.06,0 -0.1,-0.04 -0.1,-0.1zm0 -0.33l0 0c0,-0.06 0.04,-0.1 0.1,-0.1 0.05,0 0.1,0.04 0.1,0.1 0,0.05 -0.05,0.1 -0.1,0.1 -0.06,0 -0.1,-0.05 -0.1,-0.1zm-0.53 0.83l0 0c0,-0.05 0.04,-0.1 0.1,-0.1 0.05,0 0.1,0.05 0.1,0.1 0,0.06 -0.05,0.1 -0.1,0.1 -0.06,0 -0.1,-0.04 -0.1,-0.1zm0 -0.33l0 0c0,-0.06 0.04,-0.1 0.1,-0.1 0.05,0 0.1,0.04 0.1,0.1 0,0.05 -0.05,0.1 -0.1,0.1 -0.06,0 -0.1,-0.05 -0.1,-0.1zm0 -0.34l0 0c0,-0.05 0.04,-0.1 0.1,-0.1 0.05,0 0.1,0.05 0.1,0.1 0,0.06 -0.05,0.1 -0.1,0.1 -0.06,0 -0.1,-0.04 -0.1,-0.1zm-0.54 0.67l0 0c0,-0.05 0.05,-0.1 0.1,-0.1 0.06,0 0.1,0.05 0.1,0.1 0,0.06 -0.04,0.1 -0.1,0.1 -0.05,0 -0.1,-0.04 -0.1,-0.1zm0 -0.33l0 0c0,-0.06 0.05,-0.1 0.1,-0.1 0.06,0 0.1,0.04 0.1,0.1 0,0.05 -0.04,0.1 -0.1,0.1 -0.05,0 -0.1,-0.05 -0.1,-0.1zm0 -0.34l0 0c0,-0.05 0.05,-0.1 0.1,-0.1 0.06,0 0.1,0.05 0.1,0.1 0,0.06 -0.04,0.1 -0.1,0.1 -0.05,0 -0.1,-0.04 -0.1,-0.1zm0.27 0.84l0 0c0,-0.06 0.04,-0.1 0.1,-0.1 0.05,0 0.1,0.04 0.1,0.1 0,0.05 -0.05,0.1 -0.1,0.1 -0.06,0 -0.1,-0.05 -0.1,-0.1zm0 -0.33l0 0c0,-0.06 0.04,-0.11 0.1,-0.11 0.05,0 0.1,0.05 0.1,0.11 0,0.05 -0.05,0.1 -0.1,0.1 -0.06,0 -0.1,-0.05 -0.1,-0.1zm0 -0.34l0 0c0,-0.05 0.04,-0.1 0.1,-0.1 0.05,0 0.1,0.05 0.1,0.1 0,0.06 -0.05,0.1 -0.1,0.1 -0.06,0 -0.1,-0.04 -0.1,-0.1zm0 -0.33l0 0c0,-0.06 0.04,-0.1 0.1,-0.1 0.05,0 0.1,0.04 0.1,0.1 0,0.05 -0.05,0.1 -0.1,0.1 -0.06,0 -0.1,-0.05 -0.1,-0.1zm-0.86 0.01l0 0 0.1 0c0.03,0 0.06,0.03 0.06,0.06l0 0.87c0,0.03 -0.03,0.06 -0.06,0.06l-0.1 0c-0.03,0 -0.06,-0.03 -0.06,-0.06l0 -0.87c0,-0.03 0.03,-0.06 0.06,-0.06zm-0.59 0l0 0 0.1 0c0.03,0 0.06,0.03 0.06,0.06l0 0.87c0,0.03 -0.03,0.06 -0.06,0.06l-0.1 0c-0.04,0 -0.06,-0.03 -0.06,-0.06l0 -0.87c0,-0.03 0.02,-0.06 0.06,-0.06zm-0.59 0l0 0 0.1 0c0.03,0 0.06,0.03 0.06,0.06l0 0.87c0,0.03 -0.03,0.06 -0.06,0.06l-0.1 0c-0.04,0 -0.06,-0.03 -0.06,-0.06l0 -0.87c0,-0.03 0.02,-0.06 0.06,-0.06zm-0.59 0l0 0 0.1 0c0.03,0 0.06,0.03 0.06,0.06l0 0.87c0,0.03 -0.03,0.06 -0.06,0.06l-0.1 0c-0.04,0 -0.06,-0.03 -0.06,-0.06l0 -0.87c0,-0.03 0.02,-0.06 0.06,-0.06zm-0.59 0l0 0 0.1 0c0.03,0 0.06,0.03 0.06,0.06l0 0.87c0,0.03 -0.03,0.06 -0.06,0.06l-0.1 0c-0.04,0 -0.06,-0.03 -0.06,-0.06l0 -0.87c0,-0.03 0.02,-0.06 0.06,-0.06zm-0.59 0l0 0 0.1 0c0.03,0 0.05,0.03 0.05,0.06l0 0.87c0,0.03 -0.02,0.06 -0.05,0.06l-0.1 0c-0.04,0 -0.06,-0.03 -0.06,-0.06l0 -0.87c0,-0.03 0.02,-0.06 0.06,-0.06zm-0.59 0l0 0 0.1 0c0.03,0 0.05,0.03 0.05,0.06l0 0.87c0,0.03 -0.02,0.06 -0.05,0.06l-0.1 0c-0.04,0 -0.06,-0.03 -0.06,-0.06l0 -0.87c0,-0.03 0.02,-0.06 0.06,-0.06zm-0.59 0l0 0 0.1 0c0.03,0 0.05,0.03 0.05,0.06l0 0.87c0,0.03 -0.02,0.06 -0.05,0.06l-0.1 0c-0.04,0 -0.06,-0.03 -0.06,-0.06l0 -0.87c0,-0.03 0.02,-0.06 0.06,-0.06zm-0.8 0.47l0 0c0,-0.08 0.07,-0.15 0.15,-0.15 0.09,0 0.15,0.07 0.15,0.15 0,0.08 -0.06,0.15 -0.15,0.15 -0.08,0 -0.15,-0.07 -0.15,-0.15zm7.36 -0.83l0 0 -7.78 0 0 1.7 7.78 0 0 -1.7zm-7.7 0.08l0 0 0 1.55 7.63 0 0 -1.55 -7.63 0zm-0.25 -0.25l0 0 8.13 0 0 2.05 -8.13 0 0 -2.05z"/>
 </g>
</svg>
