<?xml version="1.0" encoding="UTF-8"?>
<!DOCTYPE svg PUBLIC "-//W3C//DTD SVG 1.1//EN" "http://www.w3.org/Graphics/SVG/1.1/DTD/svg11.dtd">
<!-- Creator: CorelDRAW (Версия для OEM) -->
<svg xmlns="http://www.w3.org/2000/svg" xml:space="preserve" width="126px" height="163px" version="1.1" style="shape-rendering:geometricPrecision; text-rendering:geometricPrecision; image-rendering:optimizeQuality; fill-rule:evenodd; clip-rule:evenodd"
viewBox="0 0 13.37 17.36"
 xmlns:xlink="http://www.w3.org/1999/xlink"
 xmlns:xodm="http://www.corel.com/coreldraw/odm/2003">
 <defs>
  <style type="text/css">
   <![CDATA[
    .str0 {stroke:#2B2A29;stroke-width:0.1;stroke-miterlimit:22.9256}
    .fil0 {fill:#2B2A29}
   ]]>
  </style>
 </defs>
 <g id="Foreground">
  <metadata id="CorelCorpID_0Corel-Layer"/>
  <path class="fil0 str0" d="M9.56 0.05l0 0.79 -0.21 0 0 -0.79 0.21 0zm-0.46 0l0 0 0 0.68 -0.21 0 0 -0.68 0.21 0zm-0.47 0l0 0 0 0.79 -0.2 0 0 -0.79 0.2 0zm-0.46 0l0 0 0 0.68 -0.2 0 0 -0.68 0.2 0zm-0.46 0l0 0 0 0.79 -0.2 0 0 -0.79 0.2 0zm-0.46 0l0 0 0 0.68 -0.21 0 0 -0.68 0.21 0zm-0.46 0l0 0 0 0.79 -0.21 0 0 -0.79 0.21 0zm-0.46 0l0 0 0 0.68 -0.21 0 0 -0.68 0.21 0zm-0.46 0l0 0 0 0.79 -0.21 0 0 -0.79 0.21 0zm-0.46 0l0 0 0 0.68 -0.21 0 0 -0.68 0.21 0zm-0.46 0l0 0 0 0.79 -0.21 0 0 -0.79 0.21 0zm-0.46 0l0 0 0 0.68 -0.21 0 0 -0.68 0.21 0zm-0.47 0l0 0 0 0.79 -0.2 0 0 -0.79 0.2 0zm6.12 0l0 0 0 0.93c0,0.12 -0.09,0.22 -0.22,0.22l-6.47 0c-0.12,0 -0.22,-0.1 -0.22,-0.22l0 -0.93 6.91 0zm-0.24 15.31l0 0 0 -2.89 1.27 0 0 0.52 -0.6 0 0 0.64 0.56 0 0 0.5 -0.56 0 0 0.71 0.66 0 0 0.52 -1.33 0zm-3.16 0l0 0 0 -2.89 0.97 0 0.39 2.28 0.41 -2.28 0.96 0 0 2.89 -0.61 0 0.04 -2.44 -0.45 2.44 -0.75 0 -0.43 -2.44 0.05 2.44 -0.58 0zm-1.77 0l0 0 -0.4 -2.89 0.69 0 0.24 2.53 0.26 -2.53 0.69 0 -0.4 2.89 -1.08 0zm-2.73 0l0 0 0 -2.89 0.95 0 0.52 2.29 -0.04 -2.29 0.61 0 0 2.89 -0.94 0 -0.53 -2.34 0.04 2.34 -0.61 0zm9.14 0.4l0 0c0,-0.22 0.18,-0.4 0.4,-0.4 0.22,0 0.4,0.18 0.4,0.4 0,0.22 -0.18,0.4 -0.4,0.4 -0.22,0 -0.4,-0.18 -0.4,-0.4zm-10.18 0l0 0c0,-0.22 0.18,-0.4 0.4,-0.4 0.22,0 0.4,0.18 0.4,0.4 0,0.22 -0.18,0.4 -0.4,0.4 -0.22,0 -0.4,-0.18 -0.4,-0.4zm10.18 -14.16l0 0c0,-0.22 0.18,-0.4 0.4,-0.4 0.22,0 0.4,0.18 0.4,0.4 0,0.22 -0.18,0.4 -0.4,0.4 -0.22,0 -0.4,-0.18 -0.4,-0.4zm-10.18 0l0 0c0,-0.22 0.18,-0.4 0.4,-0.4 0.22,0 0.4,0.18 0.4,0.4 0,0.22 -0.18,0.4 -0.4,0.4 -0.22,0 -0.4,-0.18 -0.4,-0.4zm0.62 -1.55l0 0 9.74 0c0.97,0 1.77,0.79 1.77,1.77l0 13.72c0,0.98 -0.8,1.77 -1.77,1.77l-9.74 0c-0.98,0 -1.77,-0.79 -1.77,-1.77l0 -13.72c0,-0.98 0.79,-1.77 1.77,-1.77zm6.35 10.61l0 0 -0.44 0 0 0.4c0,0.07 0.05,0.13 0.13,0.13l0.18 0c0.07,0 0.13,-0.06 0.13,-0.13l0 -0.4zm1.11 -7.56l0 0 -5.18 0c-0.22,0 -0.4,0.18 -0.4,0.4l0 6.5c0,0.22 0.18,0.4 0.4,0.4l5.18 0c0.22,0 0.4,-0.18 0.4,-0.4l0 -6.5c0,-0.22 -0.18,-0.4 -0.4,-0.4zm-6.36 6.08l0 0 0 0.19c0,0.07 0.06,0.13 0.14,0.13l0.37 0 0 -0.45 -0.37 0c-0.08,0 -0.14,0.06 -0.14,0.13zm0 -1.26l0 0 0 0.18c0,0.08 0.06,0.14 0.14,0.14l0.37 0 0 -0.45 -0.37 0c-0.08,0 -0.14,0.06 -0.14,0.13zm0 -1.26l0 0 0 0.18c0,0.07 0.06,0.13 0.14,0.13l0.37 0 0 -0.45 -0.37 0c-0.08,0 -0.14,0.06 -0.14,0.14zm0 -1.26l0 0 0 0.18c0,0.07 0.06,0.13 0.14,0.13l0.37 0 0 -0.45 -0.37 0c-0.08,0 -0.14,0.06 -0.14,0.14zm0 -1.27l0 0 0 0.19c0,0.07 0.06,0.13 0.14,0.13l0.37 0 0 -0.45 -0.37 0c-0.08,0 -0.14,0.06 -0.14,0.13zm7.02 5.37l0 0 0.38 0c0.07,0 0.13,-0.06 0.13,-0.13l0 -0.19c0,-0.07 -0.06,-0.13 -0.13,-0.13l-0.38 0 0 0.45zm0 -1.26l0 0 0.38 0c0.07,0 0.13,-0.06 0.13,-0.14l0 -0.18c0,-0.07 -0.06,-0.13 -0.13,-0.13l-0.38 0 0 0.45zm0 -1.27l0 0 0.38 0c0.07,0 0.13,-0.06 0.13,-0.13l0 -0.18c0,-0.08 -0.06,-0.14 -0.13,-0.14l-0.38 0 0 0.45zm0 -1.26l0 0 0.38 0c0.07,0 0.13,-0.06 0.13,-0.13l0 -0.18c0,-0.08 -0.06,-0.14 -0.13,-0.14l-0.38 0 0 0.45zm0 -1.26l0 0 0.38 0c0.07,0 0.13,-0.06 0.13,-0.13l0 -0.19c0,-0.07 -0.06,-0.13 -0.13,-0.13l-0.38 0 0 0.45zm-4.42 -2.14l0 0 -0.19 0c-0.07,0 -0.13,0.05 -0.13,0.13l0 0.4 0.45 0 0 -0.4c0,-0.08 -0.06,-0.13 -0.13,-0.13zm1.26 0l0 0 -0.18 0c-0.08,0 -0.14,0.05 -0.14,0.13l0 0.4 0.45 0 0 -0.4c0,-0.08 -0.06,-0.13 -0.13,-0.13zm1.26 0l0 0 -0.18 0c-0.08,0 -0.13,0.05 -0.13,0.13l0 0.4 0.44 0 0 -0.4c0,-0.08 -0.06,-0.13 -0.13,-0.13zm-2.84 8.35l0 0 0 0.4c0,0.07 0.06,0.13 0.13,0.13l0.19 0c0.07,0 0.13,-0.06 0.13,-0.13l0 -0.4 -0.45 0zm1.98 0l0 0 0 0.4c0,0.22 -0.18,0.4 -0.4,0.4l-0.18 0c-0.22,0 -0.4,-0.18 -0.4,-0.4l0 -0.4 -0.29 0 0 0.4c0,0.22 -0.17,0.4 -0.39,0.4l-0.19 0c-0.22,0 -0.4,-0.18 -0.4,-0.4l0 -0.4 -0.83 0c-0.37,0 -0.67,-0.3 -0.67,-0.66l0 -0.24 -0.37 0c-0.22,0 -0.4,-0.17 -0.4,-0.39l0 -0.19c0,-0.22 0.18,-0.4 0.4,-0.4l0.37 0 0 -0.28 -0.37 0c-0.22,0 -0.4,-0.18 -0.4,-0.4l0 -0.18c0,-0.22 0.18,-0.4 0.4,-0.4l0.37 0 0 -0.28 -0.37 0c-0.22,0 -0.4,-0.18 -0.4,-0.4l0 -0.18c0,-0.22 0.18,-0.4 0.4,-0.4l0.37 0 0 -0.28 -0.37 0c-0.22,0 -0.4,-0.18 -0.4,-0.4l0 -0.18c0,-0.23 0.18,-0.4 0.4,-0.4l0.37 0 0 -0.29 -0.37 0c-0.22,0 -0.4,-0.17 -0.4,-0.39l0 -0.19c0,-0.22 0.18,-0.4 0.4,-0.4l0.37 0 0 -0.23c0,-0.37 0.3,-0.66 0.67,-0.66l0.83 0 0 -0.4c0,-0.22 0.18,-0.4 0.4,-0.4l0.19 0c0.22,0 0.39,0.18 0.39,0.4l0 0.4 0.29 0 0 -0.4c0,-0.22 0.18,-0.4 0.4,-0.4l0.18 0c0.22,0 0.4,0.18 0.4,0.4l0 0.4 0.28 0 0 -0.4c0,-0.22 0.18,-0.4 0.4,-0.4l0.18 0c0.22,0 0.4,0.18 0.4,0.4l0 0.4 0.84 0c0.37,0 0.66,0.29 0.66,0.66l0 0.23 0.38 0c0.22,0 0.4,0.18 0.4,0.4l0 0.19c0,0.22 -0.18,0.39 -0.4,0.39l-0.38 0 0 0.29 0.38 0c0.22,0 0.4,0.17 0.4,0.4l0 0.18c0,0.22 -0.18,0.4 -0.4,0.4l-0.38 0 0 0.28 0.38 0c0.22,0 0.4,0.18 0.4,0.4l0 0.18c0,0.22 -0.18,0.4 -0.4,0.4l-0.38 0 0 0.28 0.38 0c0.22,0 0.4,0.18 0.4,0.4l0 0.18c0,0.22 -0.18,0.4 -0.4,0.4l-0.38 0 0 0.28 0.38 0c0.22,0 0.4,0.18 0.4,0.4l0 0.19c0,0.22 -0.18,0.39 -0.4,0.39l-0.38 0 0 0.24c0,0.36 -0.29,0.66 -0.66,0.66l-0.84 0 0 0.4c0,0.22 -0.18,0.4 -0.4,0.4l-0.18 0c-0.22,0 -0.4,-0.18 -0.4,-0.4l0 -0.4 -0.28 0zm-0.72 0l0 0 0 0.4c0,0.07 0.06,0.13 0.14,0.13l0.18 0c0.07,0 0.13,-0.06 0.13,-0.13l0 -0.4 -0.45 0zm-1.87 -6.84l0 0c-0.1,0 -0.18,0.08 -0.18,0.17l0 5.51c0,0.1 0.08,0.18 0.18,0.18l4.2 0c0.09,0 0.17,-0.08 0.17,-0.18l0 -5.51c0,-0.09 -0.08,-0.17 -0.17,-0.17l-4.2 0zm0 -0.27l0 0 4.2 0c0.24,0 0.44,0.2 0.44,0.44l0 5.51c0,0.25 -0.2,0.44 -0.44,0.44l-4.2 0c-0.24,0 -0.44,-0.19 -0.44,-0.44l0 -5.51c0,-0.24 0.2,-0.44 0.44,-0.44z"/>
 </g>
</svg>
