<?xml version="1.0" encoding="UTF-8"?>
<!DOCTYPE svg PUBLIC "-//W3C//DTD SVG 1.1//EN" "http://www.w3.org/Graphics/SVG/1.1/DTD/svg11.dtd">
<!-- Creator: CorelDRAW (Версия для OEM) -->
<svg xmlns="http://www.w3.org/2000/svg" xml:space="preserve" width="126px" height="163px" version="1.1" style="shape-rendering:geometricPrecision; text-rendering:geometricPrecision; image-rendering:optimizeQuality; fill-rule:evenodd; clip-rule:evenodd"
viewBox="0 0 8.72 11.32"
 xmlns:xlink="http://www.w3.org/1999/xlink"
 xmlns:xodm="http://www.corel.com/coreldraw/odm/2003">
 <defs>
  <style type="text/css">
   <![CDATA[
    .str0 {stroke:#2B2A29;stroke-width:0.06;stroke-miterlimit:22.9256}
    .fil0 {fill:#2B2A29}
   ]]>
  </style>
 </defs>
 <g id="Foreground">
  <metadata id="CorelCorpID_0Corel-Layer"/>
  <path class="fil0 str0" d="M6.23 0.03l0 0.52 -0.13 0 0 -0.52 0.13 0zm-0.3 0l0 0 0 0.45 -0.14 0 0 -0.45 0.14 0zm-0.3 0l0 0 0 0.52 -0.14 0 0 -0.52 0.14 0zm-0.3 0l0 0 0 0.45 -0.14 0 0 -0.45 0.14 0zm-0.3 0l0 0 0 0.52 -0.14 0 0 -0.52 0.14 0zm-0.3 0l0 0 0 0.45 -0.14 0 0 -0.45 0.14 0zm-0.3 0l0 0 0 0.52 -0.14 0 0 -0.52 0.14 0zm-0.3 0l0 0 0 0.45 -0.14 0 0 -0.45 0.14 0zm-0.3 0l0 0 0 0.52 -0.14 0 0 -0.52 0.14 0zm-0.3 0l0 0 0 0.45 -0.14 0 0 -0.45 0.14 0zm-0.31 0l0 0 0 0.52 -0.13 0 0 -0.52 0.13 0zm-0.3 0l0 0 0 0.45 -0.13 0 0 -0.45 0.13 0zm-0.3 0l0 0 0 0.52 -0.13 0 0 -0.52 0.13 0zm3.99 0l0 0 0 0.61c0,0.08 -0.06,0.14 -0.14,0.14l-4.22 0c-0.08,0 -0.14,-0.06 -0.14,-0.14l0 -0.61 4.5 0zm-1.77 9.98l0 0 0 -1.88 0.63 0 0.26 1.49 0.26 -1.49 0.63 0 0 1.88 -0.4 0 0.03 -1.59 -0.3 1.59 -0.48 0 -0.29 -1.59 0.04 1.59 -0.38 0zm-1.46 0l0 0 0.28 -1.88 0.7 0 0.29 1.88 -0.45 0 -0.05 -0.46 -0.28 0 -0.05 0.46 -0.44 0zm0.53 -0.77l0 0 0.2 0 -0.09 -0.89 -0.11 0.89zm-1.13 0.3l0 0c0,-0.07 -0.01,-0.11 -0.04,-0.14 -0.02,-0.02 -0.07,-0.03 -0.13,-0.03l-0.07 0 0 0.64 -0.44 0 0 -1.88 0.45 0c0.27,0 0.45,0.04 0.54,0.1 0.09,0.07 0.13,0.2 0.13,0.39l0 0.21c0,0.11 -0.02,0.19 -0.07,0.25 -0.05,0.06 -0.12,0.09 -0.23,0.11 0.1,0.02 0.17,0.05 0.22,0.11 0.05,0.05 0.07,0.12 0.07,0.22l0 0.49 -0.43 0 0 -0.47zm-0.14 -1.08l0 0 -0.1 0 0 0.59 0.1 0c0.06,0 0.1,-0.01 0.12,-0.03 0.02,-0.02 0.03,-0.06 0.03,-0.11l0 -0.31c0,-0.05 -0.01,-0.09 -0.03,-0.11 -0.02,-0.02 -0.06,-0.03 -0.12,-0.03zm4.78 1.81l0 0c0,-0.14 0.11,-0.26 0.26,-0.26 0.14,0 0.26,0.12 0.26,0.26 0,0.15 -0.12,0.26 -0.26,0.26 -0.15,0 -0.26,-0.11 -0.26,-0.26zm-6.64 0l0 0c0,-0.14 0.12,-0.26 0.26,-0.26 0.14,0 0.26,0.12 0.26,0.26 0,0.15 -0.12,0.26 -0.26,0.26 -0.14,0 -0.26,-0.11 -0.26,-0.26zm6.64 -9.23l0 0c0,-0.14 0.11,-0.26 0.26,-0.26 0.14,0 0.26,0.12 0.26,0.26 0,0.14 -0.12,0.26 -0.26,0.26 -0.15,0 -0.26,-0.12 -0.26,-0.26zm-6.64 0l0 0c0,-0.14 0.12,-0.26 0.26,-0.26 0.14,0 0.26,0.12 0.26,0.26 0,0.14 -0.12,0.26 -0.26,0.26 -0.14,0 -0.26,-0.12 -0.26,-0.26zm0.41 -1.01l0 0 6.34 0c0.64,0 1.16,0.52 1.16,1.16l0 8.94c0,0.64 -0.52,1.15 -1.16,1.15l-6.34 0c-0.64,0 -1.16,-0.51 -1.16,-1.15l0 -8.94c0,-0.64 0.52,-1.16 1.16,-1.16zm4.14 6.92l0 0 -0.29 0 0 0.26c0,0.05 0.03,0.09 0.08,0.09l0.12 0c0.05,0 0.09,-0.04 0.09,-0.09l0 -0.26zm0.72 -4.93l0 0 -3.38 0c-0.14,0 -0.26,0.12 -0.26,0.26l0 4.24c0,0.14 0.12,0.26 0.26,0.26l3.38 0c0.14,0 0.26,-0.12 0.26,-0.26l0 -4.24c0,-0.14 -0.12,-0.26 -0.26,-0.26zm-4.14 3.97l0 0 0 0.12c0,0.04 0.04,0.08 0.08,0.08l0.25 0 0 -0.29 -0.25 0c-0.04,0 -0.08,0.04 -0.08,0.09zm0 -0.83l0 0 0 0.12c0,0.05 0.04,0.09 0.08,0.09l0.25 0 0 -0.29 -0.25 0c-0.04,0 -0.08,0.04 -0.08,0.08zm0 -0.82l0 0 0 0.12c0,0.05 0.04,0.09 0.08,0.09l0.25 0 0 -0.3 -0.25 0c-0.04,0 -0.08,0.04 -0.08,0.09zm0 -0.82l0 0 0 0.12c0,0.04 0.04,0.08 0.08,0.08l0.25 0 0 -0.29 -0.25 0c-0.04,0 -0.08,0.04 -0.08,0.09zm0 -0.83l0 0 0 0.12c0,0.05 0.04,0.09 0.08,0.09l0.25 0 0 -0.29 -0.25 0c-0.04,0 -0.08,0.04 -0.08,0.08zm4.57 3.5l0 0 0.25 0c0.04,0 0.08,-0.04 0.08,-0.08l0 -0.12c0,-0.05 -0.04,-0.09 -0.08,-0.09l-0.25 0 0 0.29zm0 -0.82l0 0 0.25 0c0.04,0 0.08,-0.04 0.08,-0.09l0 -0.12c0,-0.04 -0.04,-0.08 -0.08,-0.08l-0.25 0 0 0.29zm0 -0.82l0 0 0.25 0c0.04,0 0.08,-0.04 0.08,-0.09l0 -0.12c0,-0.05 -0.04,-0.09 -0.08,-0.09l-0.25 0 0 0.3zm0 -0.83l0 0 0.25 0c0.04,0 0.08,-0.04 0.08,-0.08l0 -0.12c0,-0.05 -0.04,-0.09 -0.08,-0.09l-0.25 0 0 0.29zm0 -0.82l0 0 0.25 0c0.04,0 0.08,-0.04 0.08,-0.09l0 -0.12c0,-0.04 -0.04,-0.08 -0.08,-0.08l-0.25 0 0 0.29zm-2.88 -1.4l0 0 -0.12 0c-0.05,0 -0.09,0.04 -0.09,0.09l0 0.26 0.29 0 0 -0.26c0,-0.05 -0.04,-0.09 -0.08,-0.09zm0.82 0l0 0 -0.12 0c-0.05,0 -0.09,0.04 -0.09,0.09l0 0.26 0.3 0 0 -0.26c0,-0.05 -0.04,-0.09 -0.09,-0.09zm0.82 0l0 0 -0.12 0c-0.05,0 -0.08,0.04 -0.08,0.09l0 0.26 0.29 0 0 -0.26c0,-0.05 -0.04,-0.09 -0.09,-0.09zm-1.85 5.45l0 0 0 0.26c0,0.05 0.04,0.09 0.09,0.09l0.12 0c0.04,0 0.08,-0.04 0.08,-0.09l0 -0.26 -0.29 0zm1.29 0l0 0 0 0.26c0,0.14 -0.12,0.26 -0.26,0.26l-0.12 0c-0.14,0 -0.26,-0.12 -0.26,-0.26l0 -0.26 -0.18 0 0 0.26c0,0.14 -0.12,0.26 -0.26,0.26l-0.12 0c-0.15,0 -0.26,-0.12 -0.26,-0.26l0 -0.26 -0.55 0c-0.24,0 -0.43,-0.19 -0.43,-0.43l0 -0.15 -0.25 0c-0.14,0 -0.26,-0.12 -0.26,-0.26l0 -0.12c0,-0.15 0.12,-0.26 0.26,-0.26l0.25 0 0 -0.19 -0.25 0c-0.14,0 -0.26,-0.11 -0.26,-0.26l0 -0.12c0,-0.14 0.12,-0.26 0.26,-0.26l0.25 0 0 -0.18 -0.25 0c-0.14,0 -0.26,-0.12 -0.26,-0.26l0 -0.12c0,-0.14 0.12,-0.26 0.26,-0.26l0.25 0 0 -0.18 -0.25 0c-0.14,0 -0.26,-0.12 -0.26,-0.26l0 -0.12c0,-0.15 0.12,-0.26 0.26,-0.26l0.25 0 0 -0.19 -0.25 0c-0.14,0 -0.26,-0.11 -0.26,-0.26l0 -0.12c0,-0.14 0.12,-0.26 0.26,-0.26l0.25 0 0 -0.15c0,-0.24 0.19,-0.43 0.43,-0.43l0.55 0 0 -0.26c0,-0.14 0.11,-0.26 0.26,-0.26l0.12 0c0.14,0 0.26,0.12 0.26,0.26l0 0.26 0.18 0 0 -0.26c0,-0.14 0.12,-0.26 0.26,-0.26l0.12 0c0.14,0 0.26,0.12 0.26,0.26l0 0.26 0.18 0 0 -0.26c0,-0.14 0.12,-0.26 0.26,-0.26l0.12 0c0.15,0 0.26,0.12 0.26,0.26l0 0.26 0.55 0c0.24,0 0.43,0.19 0.43,0.43l0 0.15 0.25 0c0.14,0 0.26,0.12 0.26,0.26l0 0.12c0,0.15 -0.12,0.26 -0.26,0.26l-0.25 0 0 0.19 0.25 0c0.14,0 0.26,0.11 0.26,0.26l0 0.12c0,0.14 -0.12,0.26 -0.26,0.26l-0.25 0 0 0.18 0.25 0c0.14,0 0.26,0.12 0.26,0.26l0 0.12c0,0.14 -0.12,0.26 -0.26,0.26l-0.25 0 0 0.18 0.25 0c0.14,0 0.26,0.12 0.26,0.26l0 0.12c0,0.15 -0.12,0.26 -0.26,0.26l-0.25 0 0 0.19 0.25 0c0.14,0 0.26,0.11 0.26,0.26l0 0.12c0,0.14 -0.12,0.26 -0.26,0.26l-0.25 0 0 0.15c0,0.24 -0.19,0.43 -0.43,0.43l-0.55 0 0 0.26c0,0.14 -0.11,0.26 -0.26,0.26l-0.12 0c-0.14,0 -0.26,-0.12 -0.26,-0.26l0 -0.26 -0.18 0zm-0.47 0l0 0 0 0.26c0,0.05 0.04,0.09 0.09,0.09l0.12 0c0.05,0 0.09,-0.04 0.09,-0.09l0 -0.26 -0.3 0zm-1.22 -4.46l0 0c-0.06,0 -0.11,0.05 -0.11,0.11l0 3.59c0,0.07 0.05,0.12 0.11,0.12l2.74 0c0.06,0 0.11,-0.05 0.11,-0.12l0 -3.59c0,-0.06 -0.05,-0.11 -0.11,-0.11l-2.74 0zm0 -0.17l0 0 2.74 0c0.16,0 0.28,0.12 0.28,0.28l0 3.59c0,0.16 -0.12,0.29 -0.28,0.29l-2.74 0c-0.16,0 -0.29,-0.13 -0.29,-0.29l0 -3.59c0,-0.16 0.13,-0.28 0.29,-0.28z"/>
 </g>
</svg>
