<?xml version="1.0" encoding="UTF-8"?>
<!DOCTYPE svg PUBLIC "-//W3C//DTD SVG 1.1//EN" "http://www.w3.org/Graphics/SVG/1.1/DTD/svg11.dtd">
<!-- Creator: CorelDRAW (Версия для OEM) -->
<svg xmlns="http://www.w3.org/2000/svg" xml:space="preserve" width="126px" height="163px" version="1.1" style="shape-rendering:geometricPrecision; text-rendering:geometricPrecision; image-rendering:optimizeQuality; fill-rule:evenodd; clip-rule:evenodd"
viewBox="0 0 10.53 13.66"
 xmlns:xlink="http://www.w3.org/1999/xlink"
 xmlns:xodm="http://www.corel.com/coreldraw/odm/2003">
 <defs>
  <style type="text/css">
   <![CDATA[
    .str0 {stroke:#2B2A29;stroke-width:0.08;stroke-miterlimit:22.9256}
    .fil0 {fill:#2B2A29}
   ]]>
  </style>
 </defs>
 <g id="Foreground">
  <metadata id="CorelCorpID_0Corel-Layer"/>
  <path class="fil0 str0" d="M7.52 0.04l0 0.62 -0.16 0 0 -0.62 0.16 0zm-0.36 0l0 0 0 0.54 -0.16 0 0 -0.54 0.16 0zm-0.36 0l0 0 0 0.62 -0.17 0 0 -0.62 0.17 0zm-0.37 0l0 0 0 0.54 -0.16 0 0 -0.54 0.16 0zm-0.36 0l0 0 0 0.62 -0.16 0 0 -0.62 0.16 0zm-0.36 0l0 0 0 0.54 -0.17 0 0 -0.54 0.17 0zm-0.37 0l0 0 0 0.62 -0.16 0 0 -0.62 0.16 0zm-0.36 0l0 0 0 0.54 -0.16 0 0 -0.54 0.16 0zm-0.36 0l0 0 0 0.62 -0.16 0 0 -0.62 0.16 0zm-0.36 0l0 0 0 0.54 -0.17 0 0 -0.54 0.17 0zm-0.37 0l0 0 0 0.62 -0.16 0 0 -0.62 0.16 0zm-0.36 0l0 0 0 0.54 -0.16 0 0 -0.54 0.16 0zm-0.36 0l0 0 0 0.62 -0.17 0 0 -0.62 0.17 0zm4.82 0l0 0 0 0.73c0,0.1 -0.08,0.17 -0.18,0.17l-5.09 0c-0.1,0 -0.18,-0.07 -0.18,-0.17l0 -0.73 5.45 0zm-1.01 11.49l0 0 0 -1.15c0,-0.06 -0.01,-0.1 -0.03,-0.12 -0.02,-0.02 -0.05,-0.03 -0.11,-0.03l-0.14 0 0 1.46 0.14 0c0.05,0 0.09,-0.01 0.11,-0.03 0.02,-0.03 0.03,-0.07 0.03,-0.13zm-0.81 0.56l0 0 0 -2.27 0.67 0c0.27,0 0.45,0.05 0.54,0.14 0.1,0.1 0.15,0.28 0.15,0.56l0 0.87c0,0.28 -0.05,0.46 -0.15,0.56 -0.09,0.09 -0.27,0.14 -0.54,0.14l-0.67 0zm-1.12 -0.76l0 0 0 0.22c0,0.06 0.01,0.1 0.04,0.13 0.02,0.02 0.06,0.04 0.12,0.04 0.06,0 0.1,-0.02 0.12,-0.04 0.02,-0.02 0.03,-0.07 0.03,-0.13l0 -0.16c0,-0.05 0,-0.09 -0.01,-0.11 0,-0.03 -0.01,-0.05 -0.03,-0.07 -0.03,-0.04 -0.11,-0.07 -0.24,-0.1l-0.13 -0.03c-0.15,-0.04 -0.25,-0.1 -0.31,-0.18 -0.05,-0.07 -0.08,-0.19 -0.08,-0.35l0 -0.21c0,-0.21 0.04,-0.35 0.12,-0.43 0.08,-0.08 0.22,-0.12 0.41,-0.12l0.16 0c0.12,0 0.22,0.01 0.3,0.03 0.08,0.02 0.14,0.06 0.18,0.1 0.04,0.04 0.07,0.08 0.08,0.14 0.01,0.05 0.02,0.14 0.02,0.26l0 0.18 -0.47 0 0 -0.14c0,-0.08 -0.01,-0.12 -0.03,-0.15 -0.02,-0.02 -0.05,-0.03 -0.11,-0.03 -0.06,0 -0.1,0.01 -0.12,0.03 -0.02,0.02 -0.03,0.06 -0.03,0.12l0 0.15c0,0.11 0.1,0.19 0.29,0.24l0.13 0.04c0.14,0.04 0.24,0.09 0.3,0.17 0.05,0.07 0.08,0.19 0.08,0.35l0 0.3c0,0.19 -0.05,0.33 -0.14,0.41 -0.09,0.09 -0.23,0.13 -0.44,0.13l-0.14 0c-0.22,0 -0.38,-0.04 -0.46,-0.12 -0.09,-0.07 -0.13,-0.21 -0.13,-0.42l0 -0.25 0.49 0zm-1.57 0l0 0 0 0.22c0,0.06 0.01,0.1 0.04,0.13 0.02,0.02 0.06,0.04 0.12,0.04 0.06,0 0.1,-0.02 0.12,-0.04 0.02,-0.02 0.03,-0.07 0.03,-0.13l0 -0.16c0,-0.05 0,-0.09 -0.01,-0.11 0,-0.03 -0.01,-0.05 -0.03,-0.07 -0.03,-0.04 -0.11,-0.07 -0.24,-0.1l-0.13 -0.03c-0.15,-0.04 -0.25,-0.1 -0.3,-0.18 -0.06,-0.07 -0.09,-0.19 -0.09,-0.35l0 -0.21c0,-0.21 0.04,-0.35 0.12,-0.43 0.08,-0.08 0.22,-0.12 0.41,-0.12l0.16 0c0.12,0 0.22,0.01 0.3,0.03 0.08,0.02 0.14,0.06 0.19,0.1 0.03,0.04 0.06,0.08 0.07,0.14 0.02,0.05 0.02,0.14 0.02,0.26l0 0.18 -0.47 0 0 -0.14c0,-0.08 -0.01,-0.12 -0.02,-0.15 -0.02,-0.02 -0.06,-0.03 -0.12,-0.03 -0.06,0 -0.1,0.01 -0.11,0.03 -0.02,0.02 -0.03,0.06 -0.03,0.12l0 0.15c0,0.11 0.09,0.19 0.28,0.24l0.13 0.04c0.14,0.04 0.25,0.09 0.3,0.17 0.05,0.07 0.08,0.19 0.08,0.35l0 0.3c0,0.19 -0.04,0.33 -0.13,0.41 -0.09,0.09 -0.24,0.13 -0.45,0.13l-0.14 0c-0.22,0 -0.38,-0.04 -0.46,-0.12 -0.08,-0.07 -0.13,-0.21 -0.13,-0.42l0 -0.25 0.49 0zm5.48 1.07l0 0c0,-0.17 0.14,-0.31 0.31,-0.31 0.17,0 0.31,0.14 0.31,0.31 0,0.18 -0.14,0.32 -0.31,0.32 -0.17,0 -0.31,-0.14 -0.31,-0.32zm-8.02 0l0 0c0,-0.17 0.14,-0.31 0.32,-0.31 0.17,0 0.31,0.14 0.31,0.31 0,0.18 -0.14,0.32 -0.31,0.32 -0.18,0 -0.32,-0.14 -0.32,-0.32zm8.02 -11.14l0 0c0,-0.18 0.14,-0.32 0.31,-0.32 0.17,0 0.31,0.14 0.31,0.32 0,0.17 -0.14,0.31 -0.31,0.31 -0.17,0 -0.31,-0.14 -0.31,-0.31zm-8.02 0l0 0c0,-0.18 0.14,-0.32 0.32,-0.32 0.17,0 0.31,0.14 0.31,0.32 0,0.17 -0.14,0.31 -0.31,0.31 -0.18,0 -0.32,-0.14 -0.32,-0.31zm0.49 -1.22l0 0 7.67 0c0.77,0 1.39,0.62 1.39,1.39l0 10.8c0,0.77 -0.62,1.39 -1.39,1.39l-7.67 0c-0.77,0 -1.39,-0.62 -1.39,-1.39l0 -10.8c0,-0.77 0.62,-1.39 1.39,-1.39zm5 8.35l0 0 -0.35 0 0 0.31c0,0.06 0.05,0.11 0.11,0.11l0.14 0c0.06,0 0.1,-0.05 0.1,-0.11l0 -0.31zm0.87 -5.95l0 0 -4.08 0c-0.17,0 -0.31,0.14 -0.31,0.32l0 5.11c0,0.17 0.14,0.31 0.31,0.31l4.08 0c0.18,0 0.32,-0.14 0.32,-0.31l0 -5.11c0,-0.18 -0.14,-0.32 -0.32,-0.32zm-5 4.79l0 0 0 0.14c0,0.06 0.05,0.11 0.11,0.11l0.29 0 0 -0.36 -0.29 0c-0.06,0 -0.11,0.05 -0.11,0.11zm0 -1l0 0 0 0.15c0,0.06 0.05,0.1 0.11,0.1l0.29 0 0 -0.35 -0.29 0c-0.06,0 -0.11,0.05 -0.11,0.1zm0 -0.99l0 0 0 0.14c0,0.06 0.05,0.11 0.11,0.11l0.29 0 0 -0.35 -0.29 0c-0.06,0 -0.11,0.04 -0.11,0.1zm0 -0.99l0 0 0 0.14c0,0.06 0.05,0.1 0.11,0.1l0.29 0 0 -0.35 -0.29 0c-0.06,0 -0.11,0.05 -0.11,0.11zm0 -1l0 0 0 0.15c0,0.05 0.05,0.1 0.11,0.1l0.29 0 0 -0.35 -0.29 0c-0.06,0 -0.11,0.04 -0.11,0.1zm5.53 4.23l0 0 0.29 0c0.06,0 0.1,-0.05 0.1,-0.11l0 -0.14c0,-0.06 -0.04,-0.11 -0.1,-0.11l-0.29 0 0 0.36zm0 -1l0 0 0.29 0c0.06,0 0.1,-0.04 0.1,-0.1l0 -0.15c0,-0.05 -0.04,-0.1 -0.1,-0.1l-0.29 0 0 0.35zm0 -0.99l0 0 0.29 0c0.06,0 0.1,-0.05 0.1,-0.11l0 -0.14c0,-0.06 -0.04,-0.1 -0.1,-0.1l-0.29 0 0 0.35zm0 -1l0 0 0.29 0c0.06,0 0.1,-0.04 0.1,-0.1l0 -0.14c0,-0.06 -0.04,-0.11 -0.1,-0.11l-0.29 0 0 0.35zm0 -0.99l0 0 0.29 0c0.06,0 0.1,-0.05 0.1,-0.1l0 -0.15c0,-0.06 -0.04,-0.1 -0.1,-0.1l-0.29 0 0 0.35zm-3.49 -1.69l0 0 -0.14 0c-0.06,0 -0.11,0.05 -0.11,0.11l0 0.31 0.36 0 0 -0.31c0,-0.06 -0.05,-0.11 -0.11,-0.11zm1 0l0 0 -0.15 0c-0.06,0 -0.1,0.05 -0.1,0.11l0 0.31 0.35 0 0 -0.31c0,-0.06 -0.05,-0.11 -0.1,-0.11zm0.99 0l0 0 -0.14 0c-0.06,0 -0.11,0.05 -0.11,0.11l0 0.31 0.35 0 0 -0.31c0,-0.06 -0.04,-0.11 -0.1,-0.11zm-2.24 6.58l0 0 0 0.31c0,0.06 0.05,0.11 0.11,0.11l0.14 0c0.06,0 0.11,-0.05 0.11,-0.11l0 -0.31 -0.36 0zm1.56 0l0 0 0 0.31c0,0.18 -0.14,0.32 -0.31,0.32l-0.15 0c-0.17,0 -0.31,-0.14 -0.31,-0.32l0 -0.31 -0.22 0 0 0.31c0,0.18 -0.15,0.32 -0.32,0.32l-0.14 0c-0.18,0 -0.32,-0.14 -0.32,-0.32l0 -0.31 -0.66 0c-0.29,0 -0.52,-0.23 -0.52,-0.52l0 -0.18 -0.29 0c-0.18,0 -0.32,-0.15 -0.32,-0.32l0 -0.14c0,-0.18 0.14,-0.32 0.32,-0.32l0.29 0 0 -0.22 -0.29 0c-0.18,0 -0.32,-0.14 -0.32,-0.31l0 -0.15c0,-0.17 0.14,-0.31 0.32,-0.31l0.29 0 0 -0.22 -0.29 0c-0.18,0 -0.32,-0.14 -0.32,-0.32l0 -0.14c0,-0.17 0.14,-0.31 0.32,-0.31l0.29 0 0 -0.23 -0.29 0c-0.18,0 -0.32,-0.14 -0.32,-0.31l0 -0.14c0,-0.18 0.14,-0.32 0.32,-0.32l0.29 0 0 -0.22 -0.29 0c-0.18,0 -0.32,-0.14 -0.32,-0.31l0 -0.15c0,-0.17 0.14,-0.31 0.32,-0.31l0.29 0 0 -0.18c0,-0.29 0.23,-0.53 0.52,-0.53l0.66 0 0 -0.31c0,-0.17 0.14,-0.31 0.32,-0.31l0.14 0c0.17,0 0.32,0.14 0.32,0.31l0 0.31 0.22 0 0 -0.31c0,-0.17 0.14,-0.31 0.31,-0.31l0.15 0c0.17,0 0.31,0.14 0.31,0.31l0 0.31 0.22 0 0 -0.31c0,-0.17 0.14,-0.31 0.32,-0.31l0.14 0c0.17,0 0.31,0.14 0.31,0.31l0 0.31 0.66 0c0.29,0 0.53,0.24 0.53,0.53l0 0.18 0.29 0c0.17,0 0.31,0.14 0.31,0.31l0 0.15c0,0.17 -0.14,0.31 -0.31,0.31l-0.29 0 0 0.22 0.29 0c0.17,0 0.31,0.14 0.31,0.32l0 0.14c0,0.17 -0.14,0.31 -0.31,0.31l-0.29 0 0 0.23 0.29 0c0.17,0 0.31,0.14 0.31,0.31l0 0.14c0,0.18 -0.14,0.32 -0.31,0.32l-0.29 0 0 0.22 0.29 0c0.17,0 0.31,0.14 0.31,0.31l0 0.15c0,0.17 -0.14,0.31 -0.31,0.31l-0.29 0 0 0.22 0.29 0c0.17,0 0.31,0.14 0.31,0.32l0 0.14c0,0.17 -0.14,0.32 -0.31,0.32l-0.29 0 0 0.18c0,0.29 -0.24,0.52 -0.53,0.52l-0.66 0 0 0.31c0,0.18 -0.14,0.32 -0.31,0.32l-0.14 0c-0.18,0 -0.32,-0.14 -0.32,-0.32l0 -0.31 -0.22 0zm-0.56 0l0 0 0 0.31c0,0.06 0.04,0.11 0.1,0.11l0.15 0c0.05,0 0.1,-0.05 0.1,-0.11l0 -0.31 -0.35 0zm-1.48 -5.38l0 0c-0.07,0 -0.14,0.06 -0.14,0.13l0 4.34c0,0.08 0.07,0.14 0.14,0.14l3.31 0c0.07,0 0.13,-0.06 0.13,-0.14l0 -4.34c0,-0.07 -0.06,-0.13 -0.13,-0.13l-3.31 0zm0 -0.21l0 0 3.31 0c0.19,0 0.34,0.15 0.34,0.34l0 4.34c0,0.19 -0.15,0.35 -0.34,0.35l-3.31 0c-0.19,0 -0.34,-0.16 -0.34,-0.35l0 -4.34c0,-0.19 0.15,-0.34 0.34,-0.34z"/>
 </g>
</svg>
